<?xml version="1.0" encoding="UTF-8" standalone="no"?>
<!-- Created with Inkscape (http://www.inkscape.org/) -->

<svg
   width="306.06836"
   height="94.453003"
   viewBox="0 0 80.980586 24.99069"
   version="1.1"
   id="svg1"
   xmlns="http://www.w3.org/2000/svg"
   xmlns:svg="http://www.w3.org/2000/svg">
  <defs
     id="defs1" />
  <g
     id="layer4"
     transform="translate(-15.00012,-9.9999067)">
    <path
       d="m 20.999752,12.272119 c -0.666667,0.394501 -0.999939,0.728121 -0.999939,0.728121 v 0.190169 13.956771 0.06046 c 0.242417,0.179206 0.558611,0.387727 0.95343,0.600997 0.01551,0.0084 0.03077,0.01694 0.04651,0.02532 z"
       style="fill:#ffffff;fill-opacity:1;stroke-width:2"
       id="path111" />
    <path
       d="m 40.000142,15.000118 -5.000211,2.999817 v 4.282426 c 0.01312,-0.104559 0.01964,-0.199108 0.01964,-0.282153 V 21.49998 l 0.980302,-0.001 V 18.7849 l 3.000333,-1.784904 v 4.49585 1.001489 6.502445 H 35.99987 v -6.499861 h -0.101286 c -0.137991,1.204455 -0.736528,2.816304 -2.146639,4.337719 -0.225769,0.24359 -0.470446,0.48224 -0.734839,0.711585 l -0.01705,0.0217 c 1,-0.57097 1.999878,-1.111417 1.999878,-0.05168 0,1.48073 -1.999878,1.48053 -1.999878,1.48053 v 1.000456 h 7.000089 V 21.66121 17.324524 Z"
       style="fill:#ffffff;fill-opacity:1;stroke-width:2"
       id="path109" />
    <path
       d="m 32.047656,11.608594 -0.611849,1.037663 c 0,0 2.564124,1.66754 3.564124,3.3538 H 35.99987 V 9.9999064 h -0.999939 c 0,1.9999996 -0.999935,2.5791676 -2.952275,1.6086876 z"
       style="fill:#ffffff;fill-opacity:1;stroke-width:2"
       id="path112" />
    <path
       d="m 75.980892,15.000118 v -3.000334 l -5.000212,3.000334 h 2.338876 l 1.680517,-0.999939 v 0.999939 z"
       style="fill:#ffffff;fill-opacity:1;stroke-width:0.999999"
       id="path100" />
    <path
       d="m 70.98068,16.000057 v 9.999906 c 0,0 3.04e-4,4.012058 3.000334,4.009058 l 9.019088,-0.0088 -0.01912,-1.000456 H 80.480876 78.476864 77.98077 c -2,0 -1.999878,-1.999878 -1.999878,-1.999878 v -10.99983 h -0.980819 v 10.999845 c 0,1 0.472957,1.660779 0.812871,1.999878 h -2.503207 c -0.965421,-0.479568 -1.309481,-1.786795 -1.309481,-2.999817 v -9.999906 z"
       style="fill:#ffffff;fill-opacity:1"
       id="path103" />
    <path
       d="M 85.980798,30.000236 V 28.99978 c 0,0 -4.000272,2.24e-4 -4.000272,-3.999756 0,-4.00002 4.000272,-4.000272 4.000272,-4.000272 v -0.999939 h -5.000211 c 0,0 -3.999756,2.11e-4 -3.999756,5.000211 0,2.075963 0.689537,3.289778 1.496033,3.999756 h 2.004012 c -1.574402,0 -2.480986,-1.999755 -2.480986,-3.999756 0,-1.999999 1.000336,-4.000272 3.000334,-4.000272 h 1.999878 c 0,0 -1.999878,1.000273 -1.999878,4.000272 0,3.000001 1.980757,3.999756 1.980757,3.999756 l 0.01912,1.000456 z"
       style="fill:#ffffff;fill-opacity:1"
       id="path102" />
    <path
       d="m 90.980493,25.999963 v -6.00015 c -0.01654,-5 -4.999695,-4.999695 -4.999695,-4.999695 h -5.000211 v 0.999939 c 0,0 5.000211,-2.44e-4 5.000211,3.999756 v 10.000423 h 0.999939 c 4,0 3.999756,-4.000273 3.999756,-4.000273 z M 84.99998,16.000057 h 1.999878 c 1.999998,0 3.000333,1.999757 3.000333,3.999756 v 6.00015 c 10e-7,2.508124 -2.137212,2.999817 -3.000333,2.999817 v -8.999967 c 0,-2.999999 -1.999878,-3.999756 -1.999878,-3.999756 z"
       style="fill:#ffffff;fill-opacity:1"
       id="path98" />
    <path
       d="M 58.980379,30.000236 V 28.99978 c -2.187227,-3.26e-4 -2.999817,-1.999878 -2.999817,-1.999878 l -1.999878,3.000334 z"
       style="fill:#ffffff;fill-opacity:1"
       id="path106" />
    <path
       d="m 25.999963,9.9999064 c -3.999822,0 -5.999973,1.6085446 -6.00015,1.6086876 0,0 -4.506471,2.403224 -4.955253,7.564913 -0.02347,0.269921 -0.04444,0.541212 -0.04444,0.826306 0,0.230544 0.01402,0.45227 0.02946,0.672827 0.293992,4.20002 3.264077,6.598608 4.468461,7.402132 0.183049,0.122124 0.309802,0.198128 0.395324,0.24753 0.187761,0.121942 0.353734,0.241279 0.583427,0.365353 1.218202,0.658036 3.055905,1.308447 5.523177,1.308447 3.114701,0 5.422177,-1.06341 7.01766,-2.447396 0.264187,-0.229202 0.508706,-0.467643 0.734322,-0.711068 1.410111,-1.521415 2.008648,-3.133264 2.146639,-4.337719 h 0.101286 v -1.000973 l -0.980302,0.001 v 0.500228 c 0,0.08304 -0.0065,0.177594 -0.01964,0.282153 -0.111702,0.890054 -0.709757,2.502735 -1.982308,3.875732 -1.422044,1.53429 -3.648509,2.83807 -7.01766,2.83807 -2.259933,0 -3.907871,-0.580692 -5.000211,-1.162203 -0.01574,-0.0084 -0.031,-0.01694 -0.04651,-0.02532 -0.394819,-0.21327 -0.711013,-0.421791 -0.95343,-0.600997 -0.353558,-0.261367 -0.550833,-0.460559 -0.608749,-0.521932 -0.0069,-0.0057 -0.01368,-0.01172 -0.02067,-0.01757 -1.126512,-0.942925 -3.370337,-3.250123 -3.370337,-6.668327 0,-4.563782 3.999756,-6.809404 3.999756,-6.809404 V 13.00024 c 0,0 0.333272,-0.33362 0.999939,-0.728121 0.966326,-0.571825 2.633205,-1.272274 5.000211,-1.272274 3,0 5.435844,1.646422 5.435844,1.646412 l 0.611849,-1.037663 c -4.19e-4,-2.45e-4 -2.750744,-1.6086876 -6.047693,-1.6086876 z"
       style="fill:#ffffff;fill-opacity:1"
       id="path110" />
    <path
       d="m 40.000142,17.324524 v 4.336686 c 0.05243,-2.222895 0.624889,-3.633952 1.263489,-4.489132 0.670099,-0.897367 1.465977,-1.172021 1.716691,-1.172021 v -0.999939 c -0.749287,0 -1.695885,0.473565 -2.517676,1.574064 -0.164815,0.220712 -0.319621,0.470878 -0.462504,0.750342 z"
       style="baseline-shift:baseline;display:inline;overflow:visible;opacity:1;vector-effect:none;fill:#ffffff;fill-opacity:1;enable-background:accumulate;stop-color:#000000;stop-opacity:1"
       id="path108" />
    <path
       d="m 85.980798,9.9999064 v 0.9999386 c 0,0 5.355935,0.01291 4.999695,5.000212 v 14.000179 h 5.000212 V 9.9999064 Z m 4.019393,0.9999386 h 4.999695 V 28.99978 H 92.000069 V 15.000118 c 0,-2.999999 -1.999878,-4.000273 -1.999878,-4.000273 z"
       style="baseline-shift:baseline;display:inline;overflow:visible;vector-effect:none;fill:#ffffff;fill-opacity:1;enable-background:accumulate;stop-color:#000000"
       id="path114" />
    <path
       d="m 42.980839,15.000118 v 0.999939 c 0.86767,0 1.674966,0.995916 2.005046,1.511536 l 7.504968,11.723315 -1.192692,1.788521 c -1.321716,1.979522 -2.64959,2.966228 -6.643522,2.966228 v 0.999939 h 3.999756 l 1.20096,10e-4 12.668994,-18.993673 -5.17e-4,-0.996838 H 61.980713 57.46626 v 0.999939 c 2,0 3.181279,0.999817 1.847949,2.999817 l -4.333586,6.500378 -7.000089,-10.500134 z m 2.279447,0.999939 h 2.201933 l 6.92981,10.383346 -1.299146,1.948201 z"
       style="baseline-shift:baseline;display:inline;overflow:visible;vector-effect:none;fill:#ffffff;fill-opacity:1;enable-background:accumulate;stop-color:#000000"
       id="path113" />
    <path
       d="m 70.98068,16.000057 v -0.999939 h -3.000333 c -1.491444,0 -2.571694,0.21167 -3.288688,0.431498 -0.716993,0.219827 -1.107426,0.47284 -1.107426,0.47284 l 0.554488,0.83199 c 0,0 0.224862,-0.15752 0.845426,-0.347782 0.620564,-0.190263 1.599414,-0.388607 2.9962,-0.388607 z"
       style="baseline-shift:baseline;display:inline;overflow:visible;opacity:1;vector-effect:none;fill:#ffffff;fill-opacity:1;enable-background:accumulate;stop-color:#000000;stop-opacity:1"
       id="path105" />
    <path
       d="M 73.319556,15.000118 H 70.98068 v 0.999939 h 1.019576 v -0.214974 z"
       style="baseline-shift:baseline;display:inline;overflow:visible;opacity:1;vector-effect:none;fill:#ffffff;fill-opacity:1;enable-background:accumulate;stop-color:#000000;stop-opacity:1"
       id="path104" />
    <path
       d="m 75.980892,16.000057 v -0.999939 h -0.980819 v 0.999939 z"
       style="baseline-shift:baseline;display:inline;overflow:visible;opacity:1;vector-effect:none;fill:#ffffff;fill-opacity:1;enable-background:accumulate;stop-color:#000000;stop-opacity:1"
       id="path101" />
    <path
       d="m 75.980892,16.000057 h 4.999695 v -0.999939 h -4.999695 z"
       style="baseline-shift:baseline;display:inline;overflow:visible;opacity:1;vector-effect:none;fill:#ffffff;fill-opacity:1;enable-background:accumulate;stop-color:#000000;stop-opacity:1"
       id="path99" />
    <path
       d="m 63.584749,15.906006 c -1.61799,1.11449 -2.604266,3.593656 -1.604036,5.093746 l 5.076693,7.615556 c -0.239407,0.06527 -0.659519,0.1472 -1.149284,0.198954 -0.668789,0.07067 -1.496629,0.11705 -2.355412,0.144694 -1.717418,0.05528 -3.557661,0.04083 -4.571814,0.04082 v 1.000456 c 1.005249,3e-6 2.857923,0.01277 4.603337,-0.04341 0.872806,-0.0281 1.719366,-0.0733 2.429309,-0.148312 0.709943,-0.07502 1.254132,-0.147745 1.677933,-0.361218 l -0.0041,-0.0083 c 2.607218,-1.005998 2.771196,-3.221553 1.292945,-5.438945 l -4.841565,-7.263639 z m -0.208256,1.329634 5.121135,7.759734 c 1.3827,2.094935 -0.578776,3.281453 -0.578776,3.281453 l -5.08031,-7.662065 C 61.78938,19.03257 63.376493,17.23564 63.376493,17.23564 Z"
       style="baseline-shift:baseline;display:inline;overflow:visible;opacity:1;vector-effect:none;fill:#ffffff;fill-opacity:1;enable-background:accumulate;stop-color:#000000;stop-opacity:1"
       id="path107" />
  </g>
</svg>
